<?xml version="1.0" encoding="UTF-8"?>
<svg id="Layer_1" data-name="Layer 1" xmlns="http://www.w3.org/2000/svg" viewBox="0 0 1920 940">
  <defs>
    <style>
      .cls-1 {
        fill: #00205b;
      }

      .cls-2, .cls-3, .cls-4 {
        fill: #0098b0;
      }

      .cls-5 {
        fill: #ed8b00;
      }

      .cls-6 {
        letter-spacing: 0em;
      }

      .cls-6, .cls-7 {
        font-family: CynthoNext-Bold, 'Cyntho Next';
      }

      .cls-6, .cls-7, .cls-4 {
        font-weight: 700;
      }

      .cls-3 {
        font-size: 59.65px;
      }

      .cls-8 {
        letter-spacing: 0em;
      }

      .cls-8, .cls-9, .cls-10 {
        font-family: CynthoNext-Regular, 'Cyntho Next';
      }

      .cls-9 {
        letter-spacing: 0em;
      }

      .cls-4 {
        font-family: Poppins-BoldItalic, Poppins;
        font-size: 102.82px;
        font-style: italic;
        letter-spacing: .06em;
      }
    </style>
  </defs>
  <text class="cls-3" transform="translate(1029.93 693.13)"><tspan class="cls-10" x="0" y="0">Member </tspan><tspan class="cls-9" x="253.35" y="0">o</tspan><tspan class="cls-8" x="289.38" y="0">f </tspan><tspan class="cls-7" x="331.23" y="0">Bi</tspan><tspan class="cls-6" x="386.63" y="0">of</tspan><tspan class="cls-7" x="445.93" y="0">arma Group</tspan></text>
  <g>
    <g>
      <polygon class="cls-1" points="1252.65 365.01 1249.63 383.46 1221.3 383.46 1206.86 471.5 1167.91 471.5 1170.79 453.97 1167.91 471.5 1206.87 471.5 1221.3 383.47 1249.63 383.47 1252.65 365.01"/>
      <rect class="cls-1" x="1239.68" y="344.32" width="0" height="28.11" transform="translate(686.24 1524.11) rotate(-80.73)"/>
      <g>
        <polygon class="cls-1" points="561.35 320.41 547.11 320.38 521.7 471.05 521.71 471.05 547.11 320.41 561.35 320.41"/>
        <path class="cls-1" d="m567.63,320.42c.5,0,.99.03,1.48.08-.61-.06-1.09-.08-1.48-.08Z"/>
        <path class="cls-1" d="m567.11,320.41h.26c-.1,0-.19,0-.26,0Z"/>
        <path class="cls-1" d="m567.56,320.41h-.2c.09,0,.18,0,.26,0-.02,0-.04,0-.07,0Z"/>
        <polygon class="cls-1" points="1270.47 327.22 1268.39 339.41 1266.27 338.75 1268.4 339.41 1270.47 327.22"/>
        <path class="cls-1" d="m1191.31,337.68l-2.5,10.65,2.5-10.64c3.74-13.2,11.94-20.35,20.77-24.23-8.84,3.88-17.03,11.02-20.77,24.22Z"/>
        <polygon class="cls-1" points="1253.74 358.38 1253.74 358.38 1252.65 365.01 1253.74 358.38"/>
        <polygon class="cls-1" points="1167.81 383.46 1170.43 367.45 1167.81 383.46 1167.81 383.46"/>
        <polygon class="cls-1" points="1225.62 358.37 1226.12 355.34 1225.62 358.37 1225.62 358.37"/>
        <path class="cls-1" d="m1242.3,333.43c-10.38,0-13.58,8.4-15.1,15.77,1.53-7.36,4.73-15.76,15.1-15.76,5.27,0,10.58,1.17,15.79,2.74-5.2-1.58-10.51-2.75-15.79-2.75Z"/>
        <path class="cls-1" d="m582.51,337.71s0,.02,0,.02l.03-.16s.11-.33.19-.92c.26-1.71.35-5.72-2.98-10.43-2.93-4.15-7.44-5.35-10.3-5.69.63.08,1.25.2,1.86.36,7.31,1.86,12.35,9,11.21,16.82Z"/>
      </g>
      <g>
        <path class="cls-1" d="m1252.65,365.01l1.08-6.63h-28.11,0s0,0,0,0l.5-3.03.27-1.65c.23-1.39.48-2.92.81-4.5,1.53-7.37,4.73-15.77,15.1-15.77,5.27,0,10.58,1.17,15.79,2.75,1.4.43,2.8.87,4.19,1.34l3.99,1.23,2.12.66,2.07-12.18,1.97-11.57-1.01-.25c-9.02-2.82-20.62-7.02-36.13-6.54-6.27.19-15.02.99-23.22,4.59-8.83,3.88-17.02,11.02-20.77,24.23l-2.5,10.64-2.36,10.04h-14.53l-1.49,9.08-2.62,16.01h0s14.52,0,14.52,0l-8.09,49.36-6.34,38.67,2.88-17.53-2.87,17.52h38.95l14.43-88.03h28.33l3.03-18.46Z"/>
        <path class="cls-1" d="m602.76,411.24l46.42-53.27h-.01l.03-.03h-41.1l-36.33,43.94,7.38-44.04,3.33-19.8c.02-.1.02-.21.03-.31,0,0,0-.02,0-.02,1.14-7.81-3.9-14.96-11.21-16.82-.37-.08-.72-.15-1.06-.2-.27-.05-.53-.12-.8-.15-.12-.01-.23-.03-.34-.04-.51-.05-1.02-.09-1.54-.09h-20.45l-25.41,150.64v.02s38.42.16,38.42.16l8.06-46.61s5.55,14.42,23.22,29.86c21.88,19.11,39.08,19.11,39.08,19.11v-.02s.01,0,.01,0l5.62-33.1s-7.04-2.99-14.52-8.11c-13.26-9.1-18.79-21-18.84-21.11Z"/>
        <path class="cls-1" d="m690.78,358.81c-1.48-.46-2.79-.68-3.73-.79-.84-.09-1.38-.09-1.38-.09h-18.2l-18.54,113.11h38.56l15.55-92.5s.24-.65.34-1.09c.12-.56.25-1.44.22-2.58-.07-2.24-.78-5.59-3.64-9.6-2.66-3.71-6.21-5.56-9.18-6.48Z"/>
        <path class="cls-1" d="m873.63,355.29c-14.72.11-26.25,3.97-37.18,14.47l-2.61,2.4-1.06-2.98c-4.5-10.18-14.04-13.88-28.55-13.88-15.24,0-32.71,8.8-38.06,17.27l2.46-14.57-39.22-.05-18.56,113.16h38.96l9.9-60.36c.8-4.9,6.51-25.74,26.96-25.74,7.27,0,9.47,6.79,7.74,17.33l-11.53,68.73h38.85l10.25-61.9c.8-4.9,5.73-24.15,26.32-24.15,4.04,0,10.76,5.86,9.03,16.39l-10.66,69.71h38.1l14.02-85.63c3.43-20.91-11.53-30.35-35.17-30.17Z"/>
        <path class="cls-1" d="m968.54,365.29c-2.66-3.71-6.21-5.56-9.18-6.48-1.48-.46-2.79-.68-3.73-.79-.84-.09-1.38-.09-1.38-.09h-18.2l-18.54,113.11h38.95l15.62-92.48s.13-2.55.1-3.68c-.07-2.24-.77-5.59-3.64-9.6Z"/>
        <path class="cls-1" d="m1097.51,360.95c-9.51-4.56-22.33-5.67-32.74-5.67-18.34,0-36.75,2.71-54.66,6.47l-5.13,1.02-4.7,26.87s31.25-12.33,51.63-12.06c4.45.06,9.66-.61,13.48,1.08,3.76,1.67,5.49,3.95,4.6,9.36-.64,3.92-3.42,7.19-11.64,9.68-8.19,2.48-18.86,4.21-29.63,6.59-21.58,4.77-45.98,12.6-49.73,35.49-3.82,23.29,8.77,34.26,36.72,34.31,14.75.02,26.28-5.16,31.28-7.11l6.04-19.18s-12.72,5.14-22.17,5.14c-11,0-16.17-3.81-14.78-12.32,1.33-8.1,10.23-12.33,22.69-15.89,6.13-1.75,12.52-3.4,18.33-4.78,5.46-1.3,8.27-3.39,8.27-3.39l-9.43,54.49h38.83l14.52-84.95c2.22-13.53-2.62-20.75-11.79-25.14Z"/>
        <path class="cls-1" d="m1464.28,358.19c-9.04-.21-14.92,1.89-20.92,7.63l-4.51,6.66,2.49-14.54h-39.44s-18.54,113.11-18.54,113.11h38.95l9.47-57.79c3.08-19.75,19.53-28.42,32.08-29.42,4.38-.35,9.25-.21,9.25-.21l4.41-25.43s-8.28.11-13.24,0Z"/>
        <path class="cls-1" d="m1792.56,360.95c-9.51-4.56-22.33-5.67-32.74-5.67-18.34,0-36.75,2.71-54.66,6.47l-1.92.4-7.23,24.42,3.24-1.08c15.71-5.23,31.99-9.09,48.04-9.09,4.45,0,9.63.39,13.46,2.08,3.76,1.67,6.33,4.69,5.45,10.11-.64,3.92-4.57,6.62-12.79,9.11-8.19,2.48-18.86,4.21-29.63,6.59-21.58,4.77-45.98,12.6-49.73,35.49-3.82,23.29,8.77,34.26,36.72,34.31,14.75.02,26.28-5.16,31.28-7.11l7-21.03s-13.68,7-23.13,7c-11,0-16.17-3.81-14.78-12.32,1.33-8.1,10.23-12.33,22.69-15.89,6.13-1.75,12.58-3.19,18.33-4.78,2.21-.61,4.47-1.29,6.66-2.06l1.96-1.45-9.78,54.61h38.83l14.53-84.95c2.22-13.53-2.62-20.75-11.79-25.14Z"/>
        <path class="cls-1" d="m1363.6,361.7c-9.51-4.56-22.33-5.67-32.74-5.67-18.34,0-36.75,2.71-54.66,6.47l-5.13,1.02-4.7,26.87s31.25-12.33,51.63-12.06c4.45.06,9.66-.61,13.48,1.08,3.76,1.67,5.49,3.95,4.6,9.36-.64,3.92-3.42,7.19-11.64,9.68-8.19,2.48-18.86,4.2-29.63,6.58-21.58,4.77-45.98,12.6-49.73,35.49-3.82,23.29,8.77,34.26,36.72,34.31,14.75.02,26.28-5.16,31.28-7.11l6.04-19.18s-12.72,5.15-22.17,5.15c-11,0-16.17-3.81-14.78-12.33,1.33-8.1,10.23-12.33,22.69-15.89,6.13-1.75,12.52-3.4,18.33-4.78,5.46-1.3,8.27-3.39,8.27-3.39l-9.43,54.5h38.83l14.53-84.96c2.22-13.53-2.62-20.75-11.79-25.14Z"/>
        <path class="cls-1" d="m1638.23,355.12c-14.72.11-26.24,3.97-37.18,14.47l-2.61,2.4-1.05-2.98c-4.5-10.18-14.04-13.88-28.55-13.88-15.24,0-32.71,8.8-38.06,17.27l2.46-14.57-39.22-.05-18.56,113.16h38.96l9.9-60.36c.8-4.9,6.51-25.74,26.96-25.74,7.27,0,9.47,6.79,7.74,17.33l-11.53,68.73h38.85l10.25-61.9c.8-4.9,5.73-24.15,26.32-24.15,4.04,0,10.76,5.86,9.03,16.39l-10.66,69.71,36.57-.07,14.49-85.72c3.43-20.91-10.47-30.19-34.11-30.01Z"/>
      </g>
    </g>
    <text class="cls-4" transform="translate(521.7 587.04)"><tspan x="0" y="0">Laboratorium Medis</tspan></text>
  </g>
  <g>
    <g>
      <path class="cls-1" d="m399.06,555.64c-2.84-5.97-6.74-11.57-11.69-16.52l-14.11-14.11-28.21-28.22-14.11-14.11-28.22,28.21h0s-28.21,28.22-28.21,28.22l14.11,14.11,2.41,2.41,25.8,25.8,28.22,28.22,14.11,14.11c3.9,3.9,5.85,9.01,5.84,14.12,0,5.1-1.95,10.2-5.84,14.09l14.11-14.11,14.11-14.11c4.95-4.95,8.85-10.54,11.69-16.52,7.78-16.27,7.78-35.33,0-51.6Z"/>
      <path class="cls-1" d="m331.08,708.53l-.27-.27-13.97-13.97-28.21-28.22-28.21-28.21-13.99-13.99-.25-.24-13.99-13.99-2.41-2.41-11.69-11.7-3.78,3.78-24.44,24.44c-5.01,5.01-8.41,11.03-10.2,17.4-1.94,6.9-1.98,14.22-.13,21.14.92,3.44,2.31,6.79,4.16,9.94,0,0,0,0,0,0,1.67,2.83,3.72,5.5,6.16,7.94l14.11,14.11,28.21,28.21,2.41,2.41,25.8,25.8,28.21,28.22,14.11,14.11c3.9,3.9,5.85,9.01,5.85,14.12,0,5.1-1.96,10.2-5.85,14.09l14.11-14.11,13.97-13.97.27-.27c4.88-4.91,8.74-10.46,11.56-16.38,7.78-16.27,7.78-35.33,0-51.6-2.82-5.92-6.68-11.47-11.56-16.38Z"/>
      <path class="cls-1" d="m183.72,446.54s0,0,0,0c1.67,2.83,3.72,5.5,6.16,7.94l14.11,14.1,3.78-3.78,24.44-24.44,24.44-24.44,3.78-3.78-13.99-13.99-.25-.24-13.99-13.99-2.41-2.41-11.69-11.69-3.78,3.78-24.44,24.44c-5.01,5.01-8.41,11.02-10.2,17.39-1.94,6.91-1.98,14.23-.13,21.15.92,3.45,2.31,6.79,4.16,9.94Z"/>
    </g>
    <path class="cls-5" d="m399.07,329.94c-2.83-5.92-6.68-11.47-11.56-16.38l-.27-.27-13.97-13.97-14.11-14.11c3.89,3.89,5.83,8.99,5.84,14.09,0,5.11-1.94,10.22-5.84,14.12l-14.11,14.11-28.22,28.21-25.8,25.8-2.41,2.41-28.21,28.21-3.78,3.78-24.44,24.44-24.44,24.44-3.78,3.78-28.21,28.21-28.21,28.22-13.97,13.97-.27.27c-4.88,4.91-8.74,10.46-11.56,16.38-7.78,16.27-7.78,35.33,0,51.6,2.82,5.92,6.68,11.47,11.56,16.38l.27.27,13.97,13.97,14.11,14.11,14.11,14.11c-5.14-5.14-8.59-11.33-10.34-17.88-.7-2.64-1.13-5.34-1.28-8.04-.63-10.96,3.24-22.12,11.62-30.5l28.21-28.22,25.8-25.8,2.41-2.41,28.22-28.21,28.21-28.22,28.21-28.21,28.22-28.21,28.21-28.22,14.11-14.11c4.95-4.95,8.85-10.55,11.69-16.52,7.78-16.27,7.78-35.33,0-51.6Z"/>
    <path class="cls-2" d="m342.65,160.67c-2.85-5.97-6.75-11.57-11.7-16.51l-14.11-14.11-14.11-14.11c3.89,3.89,5.84,8.99,5.85,14.09,0,5.08-1.93,10.17-5.79,14.07l-14.16,14.17-28.21,28.21-25.8,25.8-2.41,2.41-28.21,28.22-28.21,28.21-28.21,28.21-13.84,13.84c-.09.09-.18.18-.27.27s-.18.18-.27.27c-4.82,4.88-8.63,10.38-11.43,16.24-7.77,16.27-7.77,35.33,0,51.6,2.82,5.92,6.68,11.47,11.56,16.38l.27.27,13.97,13.97,14.11,14.11,14.11,14.11c-5.14-5.14-8.59-11.33-10.33-17.89-.71-2.64-1.14-5.33-1.29-8.04-.63-10.96,3.24-22.12,11.62-30.5l28.21-28.21,25.8-25.8,2.41-2.41,28.22-28.22,28.21-28.21,28.21-28.21,14.11-14.11c4.95-4.95,8.85-10.54,11.7-16.51,7.77-16.27,7.77-35.33,0-51.6Z"/>
  </g>
</svg>